<?xml version="1.0" encoding="utf-8"?>
<!-- Generator: Adobe Illustrator 24.1.3, SVG Export Plug-In . SVG Version: 6.00 Build 0)  -->
<svg version="1.1" id="Layer_1" xmlns="http://www.w3.org/2000/svg" xmlns:xlink="http://www.w3.org/1999/xlink" x="0px" y="0px"
	 viewBox="0 0 199 37" enable-background="new 0 0 199 37" xml:space="preserve">
<g>
	<path fill="#FFFFFF" d="M17.003,16.583l-1.713,6.853c-0.612,2.487-0.53,3.467-0.286,4.486H3.421
		c0.734-1.02,1.305-1.999,1.917-4.486L9.621,6.305c0.612-2.488,0.53-3.467,0.082-4.486h21.454c4.568,0,6.404,1.387,5.302,5.751
		l-1.183,4.813c-0.938,3.834-2.896,4.038-5.058,4.201l1.713,7.342c0.408,1.672,0.571,3.019,1.183,3.997H21.979l-1.917-11.339H17.003
		z M18.104,12.26h5.629c1.264,0,1.672-0.204,1.999-1.468l0.775-3.182c0.326-1.264,0-1.468-1.265-1.468h-5.628L18.104,12.26z"/>
	<path fill="#FFFFFF" d="M46.578,20.417l-0.449,1.795c-0.326,1.387,0.163,1.958,1.713,1.958h9.259c1.835,0,2.855-0.123,4.568-0.816
		l-1.876,4.568h-19.17c-4.323,0-5.098-1.795-4.119-5.792l1.917-7.586c0.979-3.997,2.651-5.792,6.974-5.792h14.643
		c4.323,0,5.099,1.795,4.12,5.792l-1.468,5.873H46.578z M54.246,16.665l0.652-2.61c0.286-1.101,0.041-1.55-1.02-1.55h-3.957
		c-1.06,0-1.468,0.449-1.753,1.55l-0.653,2.61H54.246z"/>
	<path fill="#FFFFFF" d="M70.646,27.922c-4.527,0-5.751-2.692-4.649-6.975l1.917-7.79c0.652-2.651,0.367-3.426,0.041-4.405H78.64
		l-3.426,13.827c-0.326,1.183,0,1.591,1.183,1.591h3.548c0.897,0,1.183-0.123,1.55-1.632l2.528-10.156
		c0.612-2.407,0.449-2.774,0.123-3.63h10.401l-5.221,20.965c-0.897,3.63-3.182,5.465-6.689,5.465H63.753l0.408-4.69
		c0.815,0.449,1.672,0.938,3.956,0.938h9.218c1.632,0,2.08-0.489,2.284-1.387l0.979-3.997h-0.082
		c-0.734,1.224-1.265,1.876-3.548,1.876H70.646z"/>
	<path fill="#FFFFFF" d="M99.731,6.223c0.653-2.651,0.367-3.426,0.041-4.405h10.686l-5.424,21.698
		c-0.653,2.651-0.367,3.427-0.041,4.405H93.246c0.816-0.979,1.509-1.754,2.162-4.405L99.731,6.223z"/>
	<path fill="#FFFFFF" d="M119.106,20.417l-0.449,1.795c-0.326,1.387,0.163,1.958,1.713,1.958h9.259c1.835,0,2.855-0.123,4.568-0.816
		l-1.876,4.568h-19.17c-4.323,0-5.098-1.795-4.119-5.792l1.917-7.586c0.979-3.997,2.651-5.792,6.974-5.792h14.643
		c4.323,0,5.099,1.795,4.12,5.792l-1.468,5.873H119.106z M126.774,16.665l0.652-2.61c0.286-1.101,0.041-1.55-1.02-1.55h-3.957
		c-1.06,0-1.468,0.449-1.753,1.55l-0.653,2.61H126.774z"/>
	<path fill="#FFFFFF" d="M150.434,8.752l-0.204,1.999h0.082c0.693-0.979,1.55-1.999,2.978-1.999h7.79
		c4.527,0,5.751,2.692,4.691,6.975l-1.958,7.79c-0.652,2.651-0.367,3.427-0.041,4.405h-11.747c0.815-0.979,1.509-1.754,2.162-4.405
		l2.366-9.421c0.285-1.183-0.041-1.591-1.224-1.591h-3.508c-1.183,0-1.672,0.408-1.958,1.591l-2.365,9.421
		c-0.653,2.651-0.367,3.427-0.041,4.405H135.71c0.816-0.979,1.509-1.754,2.162-4.405l2.57-10.359
		c0.652-2.651,0.367-3.426,0.041-4.405H150.434z"/>
	<path fill="#FFFFFF" d="M179.886,8.752l-0.204,1.999h0.082c0.693-0.979,1.55-1.999,2.978-1.999h7.79
		c4.527,0,5.751,2.692,4.691,6.975l-1.958,7.79c-0.652,2.651-0.367,3.427-0.041,4.405h-11.747c0.815-0.979,1.509-1.754,2.162-4.405
		l2.365-9.421c0.286-1.183-0.041-1.591-1.223-1.591h-3.508c-1.183,0-1.672,0.408-1.958,1.591l-2.365,9.421
		c-0.653,2.651-0.367,3.427-0.041,4.405h-11.747c0.816-0.979,1.509-1.754,2.162-4.405l2.57-10.359
		c0.652-2.651,0.367-3.426,0.041-4.405H179.886z"/>
</g>
</svg>
