<?xml version="1.0" encoding="utf-8"?>
<!-- Generator: Adobe Illustrator 24.1.3, SVG Export Plug-In . SVG Version: 6.00 Build 0)  -->
<svg version="1.1" id="Layer_1" xmlns="http://www.w3.org/2000/svg" xmlns:xlink="http://www.w3.org/1999/xlink" x="0px" y="0px"
	 viewBox="0 0 199 37" enable-background="new 0 0 199 37" xml:space="preserve">
<g>
	<path d="M17.003,16.583l-1.713,6.853c-0.612,2.487-0.53,3.467-0.286,4.486H3.421c0.734-1.02,1.305-1.999,1.917-4.486L9.621,6.305
		c0.612-2.488,0.53-3.467,0.082-4.486h21.454c4.568,0,6.404,1.387,5.302,5.751l-1.183,4.813c-0.938,3.834-2.896,4.038-5.058,4.201
		l1.713,7.342c0.408,1.672,0.571,3.019,1.183,3.997H21.979l-1.917-11.339H17.003z M18.104,12.26h5.629
		c1.264,0,1.672-0.204,1.999-1.468l0.775-3.182c0.326-1.264,0-1.468-1.265-1.468h-5.628L18.104,12.26z"/>
	<path d="M46.578,20.417l-0.449,1.795c-0.326,1.387,0.163,1.958,1.713,1.958h9.259c1.835,0,2.855-0.123,4.568-0.816l-1.876,4.568
		h-19.17c-4.323,0-5.098-1.795-4.119-5.792l1.917-7.586c0.979-3.997,2.651-5.792,6.974-5.792h14.643c4.323,0,5.099,1.795,4.12,5.792
		l-1.468,5.873H46.578z M54.246,16.665l0.652-2.61c0.286-1.101,0.041-1.55-1.02-1.55h-3.957c-1.06,0-1.468,0.449-1.753,1.55
		l-0.653,2.61H54.246z"/>
	<path d="M70.646,27.922c-4.527,0-5.751-2.692-4.649-6.975l1.917-7.79c0.652-2.651,0.367-3.426,0.041-4.405H78.64l-3.426,13.827
		c-0.326,1.183,0,1.591,1.183,1.591h3.548c0.897,0,1.183-0.123,1.55-1.632l2.528-10.156c0.612-2.407,0.449-2.774,0.123-3.63h10.401
		l-5.221,20.965c-0.897,3.63-3.182,5.465-6.689,5.465H63.753l0.408-4.69c0.815,0.449,1.672,0.938,3.956,0.938h9.218
		c1.632,0,2.08-0.489,2.284-1.387l0.979-3.997h-0.082c-0.734,1.224-1.265,1.876-3.548,1.876H70.646z"/>
	<path d="M99.731,6.223c0.653-2.651,0.367-3.426,0.041-4.405h10.686l-5.424,21.698c-0.653,2.651-0.367,3.427-0.041,4.405H93.246
		c0.816-0.979,1.509-1.754,2.162-4.405L99.731,6.223z"/>
	<path d="M119.106,20.417l-0.449,1.795c-0.326,1.387,0.163,1.958,1.713,1.958h9.259c1.835,0,2.855-0.123,4.568-0.816l-1.876,4.568
		h-19.17c-4.323,0-5.098-1.795-4.119-5.792l1.917-7.586c0.979-3.997,2.651-5.792,6.974-5.792h14.643c4.323,0,5.099,1.795,4.12,5.792
		l-1.468,5.873H119.106z M126.774,16.665l0.652-2.61c0.286-1.101,0.041-1.55-1.02-1.55h-3.957c-1.06,0-1.468,0.449-1.753,1.55
		l-0.653,2.61H126.774z"/>
	<path d="M150.434,8.752l-0.204,1.999h0.082c0.693-0.979,1.55-1.999,2.978-1.999h7.79c4.527,0,5.751,2.692,4.691,6.975l-1.958,7.79
		c-0.652,2.651-0.367,3.427-0.041,4.405h-11.747c0.815-0.979,1.509-1.754,2.162-4.405l2.366-9.421
		c0.285-1.183-0.041-1.591-1.224-1.591h-3.508c-1.183,0-1.672,0.408-1.958,1.591l-2.365,9.421c-0.653,2.651-0.367,3.427-0.041,4.405
		H135.71c0.816-0.979,1.509-1.754,2.162-4.405l2.57-10.359c0.652-2.651,0.367-3.426,0.041-4.405H150.434z"/>
	<path d="M179.886,8.752l-0.204,1.999h0.082c0.693-0.979,1.55-1.999,2.978-1.999h7.79c4.527,0,5.751,2.692,4.691,6.975l-1.958,7.79
		c-0.652,2.651-0.367,3.427-0.041,4.405h-11.747c0.815-0.979,1.509-1.754,2.162-4.405l2.365-9.421
		c0.286-1.183-0.041-1.591-1.223-1.591h-3.508c-1.183,0-1.672,0.408-1.958,1.591l-2.365,9.421c-0.653,2.651-0.367,3.427-0.041,4.405
		h-11.747c0.816-0.979,1.509-1.754,2.162-4.405l2.57-10.359c0.652-2.651,0.367-3.426,0.041-4.405H179.886z"/>
</g>
<polygon points="0,126 0,122.516 55,90.469 101.52,118.501 76.562,118.516 55.021,105.48 21.438,126 "/>
<polygon points="170.002,125 169.976,122 77.579,122 55.013,108.623 28.172,125 33.589,125 55.02,112.189 75.283,124.685 
	75.375,124.881 77.492,125 "/>
<g>
	<path d="M131.192,92h-21.454c0.449,1,0.53,2.055-0.082,4.542l-4.283,17.051c-0.612,2.487-1.183,3.406-1.917,4.406h11.583
		c-0.245-1-0.326-1.83,0.286-4.316l1.713-6.684h3.059l1.917,11h11.135c-0.612-1-0.775-2.217-1.183-3.889l-1.713-7.288
		c2.162-0.163,4.12-0.34,5.058-4.174l1.183-4.856C137.596,93.429,135.76,92,131.192,92z M126.542,97.686l-0.775,3.514
		c-0.327,1.264-0.734,1.8-1.999,1.8h-5.629l1.509-7h5.628C126.542,96,126.869,96.422,126.542,97.686z"/>
	<path d="M157.137,114h-9.259c-1.55,0-2.039-0.195-1.713-1.582l0.449-1.418h16.111l1.468-6.04c0.979-3.997,0.204-5.96-4.12-5.96
		h-14.643c-4.323,0-5.996,1.818-6.974,5.815l-1.917,7.49c-0.979,3.997-0.204,5.695,4.119,5.695h19.17l1.876-4.692
		C159.992,114.001,158.973,114,157.137,114z M148.205,104.47c0.285-1.101,0.693-1.47,1.753-1.47h3.956
		c1.061,0,1.305,0.369,1.02,1.47l-0.652,2.53h-6.73L148.205,104.47z"/>
	<path d="M184.183,99c0.326,1,0.489,1.247-0.123,3.653l-2.528,9.936c-0.367,1.509-0.653,1.411-1.55,1.411h-3.548
		c-1.183,0-1.509-0.199-1.183-1.382L178.676,99H167.99c0.326,1,0.612,1.777-0.04,4.428l-1.917,7.694
		c-1.102,4.282,0.122,6.878,4.649,6.878h6.322c2.284,0,2.814,0,3.548-2h0.082l-0.979,4.305c-0.204,0.898-0.652,1.695-2.284,1.695
		H169v3h13.673c3.508,0,5.792-1.62,6.689-5.25L194.583,99H184.183z"/>
	<path d="M210.494,92h-10.686c0.326,1,0.612,1.81-0.041,4.461l-4.323,17.214c-0.652,2.651-1.346,3.325-2.162,4.325h11.747
		c-0.326-1-0.612-1.702,0.041-4.354L210.494,92z"/>
	<path d="M219.142,111h16.111l1.468-6.04c0.979-3.997,0.204-5.96-4.12-5.96h-14.643c-4.323,0-5.996,1.818-6.974,5.815l-1.917,7.49
		c-0.979,3.997-0.204,5.695,4.119,5.695h19.17l1.876-4.692c-1.713,0.693-2.732,0.692-4.568,0.692h-9.259
		c-1.55,0-2.039-0.195-1.713-1.582L219.142,111z M220.733,104.47c0.285-1.101,0.693-1.47,1.753-1.47h3.957
		c1.06,0,1.305,0.369,1.019,1.47L226.81,107h-6.73L220.733,104.47z"/>
	<path d="M265.806,105.998c1.06-4.283-0.164-6.998-4.691-6.998h-7.79c-1.428,0-2.284,1-2.978,2h-0.082l0.204-2h-9.952
		c0.326,1,0.612,1.777-0.041,4.428l-2.57,10.263c-0.652,2.651-1.346,3.309-2.162,4.309h11.747c-0.326-1-0.612-1.646,0.041-4.297
		l2.365-9.267c0.286-1.183,0.775-1.436,1.958-1.436h3.508c1.183,0,1.509,0.307,1.224,1.49l-2.366,9.263
		c-0.653,2.651-1.346,3.247-2.162,4.247h11.747c-0.327-1-0.612-1.657,0.04-4.309L265.806,105.998z"/>
	<path d="M290.567,99h-7.79c-1.428,0-2.284,1-2.978,2h-0.081l0.204-2h-9.952c0.326,1,0.612,1.777-0.04,4.428l-2.57,10.263
		c-0.652,2.651-1.346,3.309-2.162,4.309h11.747c-0.326-1-0.612-1.646,0.041-4.297l2.365-9.267c0.286-1.183,0.775-1.436,1.958-1.436
		h3.508c1.183,0,1.509,0.307,1.223,1.49l-2.365,9.263c-0.653,2.651-1.346,3.247-2.162,4.247h11.747
		c-0.327-1-0.612-1.646,0.041-4.297l1.958-7.76C296.318,101.661,295.094,99,290.567,99z"/>
	<path d="M343.881,98.419c1.305-5.302-1.143-6.419-5.016-6.419h-21.373c0.449,1,0.53,2.055-0.082,4.542l-4.283,17.051
		c-0.612,2.487-1.183,3.406-1.917,4.406h11.583c-0.245-1-0.326-1.85,0.286-4.336l1.224-4.664h10.36c3.875,0,6.852-1.13,8.197-6.433
		L343.881,98.419z M333.848,98.461l-0.896,3.983c-0.449,1.835-0.94,2.556-2.367,2.556h-5.221l2.039-9h5.22
		C334.051,96,334.338,96.626,333.848,98.461z"/>
	<path d="M365.625,99h-4.691c-2.977,0-4.201,1-5.709,3h-0.082l0.449-3h-9.627c0.326,1,0.613,1.777-0.041,4.428l-2.568,10.263
		c-0.652,2.651-1.346,3.309-2.162,4.309h11.746c-0.326-1-0.611-1.646,0.041-4.297l1.551-6.105c0.652-2.61,1.549-3.235,5.342-3.235
		c2.855,0,3.182,0.235,4.201,0.928L365.625,99z"/>
	<path d="M391.977,104.815c0.978-3.997,0.203-5.815-4.119-5.815h-15.01c-4.324,0-5.996,1.818-6.975,5.815l-1.918,7.49
		c-0.978,3.997-0.203,5.695,4.121,5.695h15.008c4.324,0,5.996-1.698,6.975-5.695L391.977,104.815z M382.473,104.449l-2.162,8.282
		c-0.244,1.102-0.693,1.269-1.834,1.269h-3.998c-1.06,0-1.264-0.217-1.019-1.318l2.162-8.349c0.285-1.101,0.693-1.333,1.754-1.333
		h3.996C382.514,103,382.758,103.348,382.473,104.449z"/>
	<path d="M416.086,99h-8.117c-1.346,0-1.998,0.653-3.018,2.04L404.91,99h-9.381c0.244,1,0.408,1.417-0.082,3.374L389.777,125h10.441
		c-0.285,0-0.408-1.562,0.082-3.521l1.346-5.479h0.082c0.082,1,0.285,2,2.039,2h7.545c4.406,0,6.648-2.34,7.506-5.848l1.836-7.229
		C421.51,101.416,420.49,99,416.086,99z M411.191,104.367l-2.162,8.446c-0.285,1.061-0.775,1.187-1.713,1.187h-3.834
		c-0.938,0-1.266-0.176-0.979-1.236l2.16-8.512c0.287-1.061,0.775-1.252,1.715-1.252h3.834
		C411.15,103,411.477,103.307,411.191,104.367z"/>
	<path d="M431.465,111h16.111l1.469-6.04c0.978-3.997,0.203-5.96-4.119-5.96h-14.643c-4.324,0-5.996,1.818-6.975,5.815l-1.918,7.49
		c-0.979,3.997-0.203,5.695,4.121,5.695h19.168l1.877-4.692c-1.713,0.693-2.732,0.692-4.568,0.692h-9.258
		c-1.551,0-2.039-0.195-1.713-1.582L431.465,111z M433.057,104.47c0.285-1.101,0.693-1.47,1.754-1.47h3.955
		c1.061,0,1.307,0.369,1.021,1.47l-0.654,2.53h-6.728L433.057,104.47z"/>
	<path d="M468.26,99c-2.979,0-4.201,1-5.711,3h-0.082l0.449-3h-9.625c0.326,1,0.611,1.777-0.041,4.428l-2.57,10.263
		c-0.652,2.651-1.346,3.309-2.162,4.309h11.748c-0.326-1-0.613-1.646,0.041-4.297l1.549-6.105c0.652-2.61,1.551-3.235,5.344-3.235
		c2.855,0,3.182,0.235,4.201,0.928l1.549-6.29H468.26z"/>
	<path d="M484.902,114c-1.713,0-1.834,0.006-1.549-1.218l2.527-9.782h7.668l0.939-4h-7.668l1.061-4.137l-9.707,0.233L477.193,99
		h-4.119l-0.938,4h4.119l-2.324,9.213c-1.225,4.772,1.143,5.787,4.201,5.787h12.072l1.713-4.61c-0.488,0.204-1.754,0.61-3.629,0.61
		H484.902z"/>
	<polygon points="509.664,92 500.201,92 498.938,97 508.398,97 	"/>
	<path d="M507.992,99h-10.688c0.326,1,0.613,1.777-0.041,4.428l-2.568,10.263c-0.652,2.651-1.346,3.309-2.162,4.309h11.746
		c-0.326-1-0.611-1.669,0.041-4.32L507.992,99z"/>
	<path d="M531.854,99h-14.643c-4.324,0-5.996,1.818-6.975,5.815l-1.918,7.49c-0.979,3.997-0.203,5.695,4.121,5.695h19.168
		l1.877-4.692c-1.713,0.693-2.732,0.692-4.568,0.692h-9.258c-1.551,0-2.039-0.195-1.713-1.582l0.447-1.418h16.111l1.469-6.04
		C536.951,100.962,536.176,99,531.854,99z M526.715,104.47L526.06,107h-6.729l0.652-2.53c0.285-1.101,0.693-1.47,1.754-1.47h3.955
		C526.754,103,527,103.369,526.715,104.47z"/>
	<path d="M546.867,99c-3.672,0-6.566,1.981-7.301,4.918l-0.898,3.592c-0.488,2.366-0.367,4.49,4.039,4.49h8.361
		c0.979,0,1.223,0.375,1.02,1.15l-0.082,0.619c-0.205,0.775-0.57,1.23-1.551,1.23h-8.115c-3.387,0-4.16-0.539-5.711-1.355
		L536.221,118h17.865c4.283,0,6.404-2.502,7.016-4.949l0.938-3.658c0.49-2.325,0.326-4.393-4.078-4.393h-8.32
		c-0.939,0-1.225-0.366-1.102-0.815l0.203-0.653c0.082-0.449,0.531-0.531,1.469-0.531h7.465c2.242,0,4.854,0.08,5.383,1.018
		L563.426,99H546.867z"/>
</g>
</svg>
