<?xml version="1.0" encoding="utf-8"?>
<!-- Generator: Adobe Illustrator 24.1.3, SVG Export Plug-In . SVG Version: 6.00 Build 0)  -->
<svg version="1.1" id="Layer_1" xmlns="http://www.w3.org/2000/svg" xmlns:xlink="http://www.w3.org/1999/xlink" x="0px" y="0px"
	 viewBox="0 0 300 37" enable-background="new 0 0 300 37" xml:space="preserve">
<polygon points="0,37 0,33.516 55,1.469 101.52,29.501 76.562,29.516 55.021,16.48 21.438,37 "/>
<polygon points="170.002,36 169.976,33 77.579,33 55.013,19.623 28.172,36 33.589,36 55.02,23.19 75.283,35.685 75.375,35.881 
	77.492,36 "/>
<path d="M131.192,3h-21.454c0.449,1,0.53,2.055-0.082,4.542l-4.283,17.051c-0.612,2.487-1.183,3.406-1.917,4.406h11.583
	c-0.245-1-0.326-1.83,0.286-4.316L117.039,18h3.059l1.917,11h11.135c-0.612-1-0.775-2.217-1.183-3.889l-1.713-7.288
	c2.162-0.163,4.12-0.34,5.058-4.174l1.183-4.856C137.596,4.429,135.76,3,131.192,3z M126.542,8.686l-0.775,3.514
	c-0.327,1.264-0.734,1.8-1.999,1.8h-5.629l1.509-7h5.628C126.542,7,126.869,7.422,126.542,8.686z"/>
<path d="M157.137,25h-9.259c-1.55,0-2.039-0.195-1.713-1.582L146.614,22h16.111l1.468-6.04c0.979-3.997,0.204-5.96-4.12-5.96H145.43
	c-4.323,0-5.996,1.818-6.974,5.815l-1.917,7.49C135.56,27.302,136.335,29,140.658,29h19.17l1.876-4.692
	C159.992,25.001,158.973,25,157.137,25z M148.205,15.47c0.285-1.101,0.693-1.47,1.753-1.47h3.956c1.061,0,1.305,0.369,1.02,1.47
	L154.282,18h-6.73L148.205,15.47z"/>
<path d="M184.183,10c0.326,1,0.489,1.247-0.123,3.653l-2.528,9.936c-0.367,1.509-0.653,1.411-1.55,1.411h-3.548
	c-1.183,0-1.509-0.199-1.183-1.382L178.676,10H167.99c0.326,1,0.612,1.777-0.04,4.428l-1.917,7.694
	c-1.102,4.282,0.122,6.878,4.649,6.878h6.322c2.284,0,2.814,0,3.548-2h0.082l-0.979,4.305c-0.204,0.898-0.652,1.695-2.284,1.695H169
	v3h13.673c3.508,0,5.792-1.62,6.689-5.25L194.583,10H184.183z"/>
<path d="M210.494,3h-10.686c0.326,1,0.612,1.81-0.041,4.461l-4.323,17.214c-0.652,2.651-1.346,3.325-2.162,4.325h11.747
	c-0.326-1-0.612-1.702,0.041-4.354L210.494,3z"/>
<path d="M219.142,22h16.111l1.468-6.04c0.979-3.997,0.204-5.96-4.12-5.96h-14.643c-4.323,0-5.996,1.818-6.974,5.815l-1.917,7.49
	c-0.979,3.997-0.204,5.695,4.119,5.695h19.17l1.876-4.692C232.52,25.001,231.5,25,229.665,25h-9.259
	c-1.55,0-2.039-0.195-1.713-1.582L219.142,22z M220.733,15.47c0.285-1.101,0.693-1.47,1.753-1.47h3.957
	c1.06,0,1.305,0.369,1.019,1.47L226.81,18h-6.73L220.733,15.47z"/>
<path d="M265.806,16.998c1.06-4.283-0.164-6.998-4.691-6.998h-7.79c-1.428,0-2.284,1-2.978,2h-0.082l0.204-2h-9.952
	c0.326,1,0.612,1.777-0.041,4.428l-2.57,10.263C237.254,27.342,236.56,28,235.744,29h11.747c-0.326-1-0.612-1.646,0.041-4.297
	l2.365-9.267c0.286-1.183,0.775-1.436,1.958-1.436h3.508c1.183,0,1.509,0.307,1.224,1.49l-2.366,9.263
	c-0.651,2.651-1.345,3.247-2.16,4.247h11.747c-0.327-1-0.612-1.657,0.04-4.309L265.806,16.998z"/>
<path d="M290.567,10h-7.79c-1.428,0-2.284,1-2.978,2h-0.081l0.204-2h-9.952c0.326,1,0.612,1.777-0.04,4.428l-2.57,10.263
	c-0.652,2.651-1.346,3.309-2.162,4.309h11.747c-0.326-1-0.612-1.646,0.041-4.297l2.365-9.267c0.286-1.183,0.775-1.436,1.958-1.436
	h3.508c1.183,0,1.509,0.307,1.223,1.49l-2.365,9.263c-0.653,2.651-1.346,3.247-2.162,4.247h11.747c-0.327-1-0.612-1.646,0.041-4.297
	l1.958-7.76C296.318,12.661,295.094,10,290.567,10z"/>
</svg>
